<?xml version="1.0" standalone="no"?>
<!DOCTYPE svg PUBLIC "-//W3C//DTD SVG 20010904//EN"
 "http://www.w3.org/TR/2001/REC-SVG-20010904/DTD/svg10.dtd">
<svg version="1.0" xmlns="http://www.w3.org/2000/svg"
 width="1024.000000pt" height="1024.000000pt" viewBox="0 0 1024.000000 1024.000000"
 preserveAspectRatio="xMidYMid meet">
<metadata>
Created by potrace 1.11, written by Peter Selinger 2001-2013
</metadata>
<g transform="translate(0.000000,1024.000000) scale(0.100000,-0.100000)"
fill="#000000" stroke="none">
<path d="M4899 9936 c-2 -2 -40 -6 -84 -10 -44 -3 -91 -8 -105 -10 -14 -3 -43
-7 -65 -10 -491 -67 -1011 -282 -1434 -593 -230 -170 -442 -378 -650 -639 -55
-69 -151 -214 -218 -330 -212 -364 -363 -805 -408 -1184 -3 -30 -8 -66 -10
-80 -17 -112 -23 -448 -10 -600 11 -149 47 -376 79 -505 40 -159 113 -384 157
-482 111 -246 176 -367 292 -543 305 -460 738 -846 1222 -1088 287 -143 530
-227 834 -288 180 -35 317 -51 516 -59 50 -2 93 -4 98 -4 4 -1 7 -724 7 -1607
l0 -1607 148 7 c81 4 165 9 187 12 37 5 143 19 225 31 19 2 64 11 100 20 36 8
75 17 87 19 60 12 272 77 387 120 162 59 407 180 560 276 409 256 758 600
1012 998 103 160 215 375 268 515 15 39 31 79 37 90 25 53 95 288 120 404 27
122 28 130 35 171 3 19 7 41 9 48 3 7 7 45 11 85 3 40 8 75 10 78 14 24 18
450 18 1944 0 1511 -4 1884 -18 1960 -2 11 -7 47 -10 80 -4 33 -9 67 -11 75
-2 8 -6 31 -9 50 -16 109 -80 365 -117 467 -40 111 -61 168 -80 210 -11 24
-19 45 -19 49 0 11 -126 258 -170 334 -378 651 -987 1160 -1688 1410 -191 68
-413 125 -577 149 -122 18 -200 29 -215 30 -45 4 -517 10 -521 7z"/>
</g>
</svg>
